# xmcd
#
# Track frame offsets: 
#        150
#        23640
#        32356
#        48066
#        62046
#        80298
#        95026
#        107146
#        120180
#        134306
#
# Disc length: 1991 seconds
#
# Revision: 0
# Processed by: cddbd v1.5.2PL0 Copyright (c) Steve Scherf et al.
# Submitted via: ExactAudioCopyFreeDBPlugin 1.0
#
DISCID=6f07c50a
DTITLE=Bukowski Waits For Us - Bukowski Waits For You-Lieder unterm Sä
DTITLE=ufermond
DYEAR=2008
DGENRE=Alternative
TTITLE0=Unterm Säufermond
TTITLE1=Jockey Full Of Bourbon
TTITLE2=Have I Told You Latley
TTITLE3=Zauberland
TTITLE4=Perfect Day
TTITLE5=Verlor'nes Paradies
TTITLE6=Solo Sunny
TTITLE7=Bleib Doch
TTITLE8=Die Dunkle Synphonie
TTITLE9=Unterm Säufermond
EXTD=
EXTT0=
EXTT1=
EXTT2=
EXTT3=
EXTT4=
EXTT5=
EXTT6=
EXTT7=
EXTT8=
EXTT9=
PLAYORDER=
